<svg xmlns="http://www.w3.org/2000/svg" width="34" height="34" fill="none" data-scope="icon">
    <path fill="#F6E458"
          d="M0 4.129A3.827 3.827 0 0 1 3.827.302H29.22a3.827 3.827 0 0 1 3.826 3.827V29.87a3.827 3.827 0 0 1-3.826 3.827H3.827A3.827 3.827 0 0 1 0 29.87V4.13Z"/>
    <path fill="#000"
          d="M21.178 7.767c-1.823-.524-3.683-.595-5.578-.425-1.06.11-2.08.32-3.064.69-2.125.798-3.722 2.181-4.673 4.264-.683 1.492-.93 3.078-.955 4.705-.027 1.72.188 3.415.53 5.096.311 1.524.724 3.018 1.315 4.46.056.137.126.184.275.183 1.867-.004 3.734-.004 5.6-.004h1.659c.042 0 .085-.002.133-.005l.08-.004-.03-.074a2.632 2.632 0 0 0-.053-.123c-.135-.289-.273-.576-.41-.864a46.137 46.137 0 0 1-.868-1.884c-.82-1.928-1.448-3.914-1.64-6.016-.084-.928-.072-1.85.185-2.754.294-1.033.925-1.762 1.972-2.067a4.841 4.841 0 0 1 2.89.03c.854.277 1.41.86 1.647 1.732.181.67.181 1.347.044 2.023-.106.52-.32.994-.703 1.374-.688.68-1.547.837-2.469.785a9.35 9.35 0 0 1-.496-.046l-.24-.025.005.072a.633.633 0 0 0 .013.12c.04.158.077.316.114.475.09.381.18.763.297 1.137.227.734.492 1.45.792 2.15 2.14-.167 4.111-.699 6.203-1.955l.088-.055c.899-.56 1.626-1.285 2.128-2.222.812-1.518.97-3.14.729-4.815-.25-1.729-1.025-3.18-2.36-4.318-.926-.79-1.997-1.306-3.16-1.64Z"/>
</svg>